<svg width="60" height="60" viewBox="0 0 60 60" fill="none" xmlns="http://www.w3.org/2000/svg">
<g clip-path="url(#clip0_324_942)">
<path d="M50.0368 0H9.96518C4.4648 0 0.00585938 4.5667 0.00585938 10.2V49.704C0.00585938 55.3373 4.4648 59.904 9.96518 59.904H50.0368C55.5372 59.904 59.9961 55.3373 59.9961 49.704V10.2C59.9961 4.5667 55.5372 0 50.0368 0Z" fill="#330000"/>
<path d="M29.0755 35.95H19.7794L17.8878 41.9675C17.8621 42.0772 17.7998 42.1744 17.7116 42.2421C17.6234 42.3098 17.5149 42.3439 17.4049 42.3385H12.6963C12.4279 42.3385 12.334 42.1873 12.4146 41.8849L20.4634 18.1446C20.5439 17.8974 20.6243 17.6158 20.7048 17.2998C20.8102 16.7497 20.8641 16.191 20.8658 15.6306C20.8603 15.5914 20.8638 15.5514 20.876 15.5139C20.8882 15.4763 20.9088 15.4421 20.9361 15.4141C20.9635 15.3861 20.9968 15.365 21.0335 15.3525C21.0701 15.3399 21.1092 15.3363 21.1474 15.3419H27.5462C27.7337 15.3419 27.841 15.4107 27.8682 15.5483L37.0034 41.9262C37.0838 42.2014 37.0034 42.3388 36.762 42.3385H31.5302C31.4404 42.3486 31.3501 42.3249 31.276 42.2718C31.202 42.2187 31.1494 42.1399 31.1278 42.05L29.0755 35.95ZM21.2281 30.7568H27.5866L27.4959 30.4504L27.3503 29.9651L27.2465 29.6243L27.0809 29.0876L26.7286 27.958L26.4189 26.9564L25.6144 24.3476C25.4141 23.6991 25.222 23.048 25.0379 22.3945L24.8907 21.8641L24.7187 21.237L24.4563 20.265L24.4071 20.0819H24.367C24.1656 21.0712 23.9204 22.0506 23.6321 23.0171L23.035 24.9841L22.7065 26.0708L22.3749 27.171C22.3151 27.3697 22.2553 27.5662 22.1956 27.7604L22.0175 28.336L21.8404 28.898L21.6642 29.4462L21.4889 29.9807C21.4308 30.1567 21.3727 30.3303 21.3148 30.5015L21.2281 30.7568ZM42.4358 19.7108C42.0253 19.7277 41.616 19.6556 41.2347 19.4993C40.8533 19.3431 40.5084 19.1062 40.2225 18.8041C39.9375 18.4888 39.7162 18.1189 39.5711 17.7157C39.4261 17.3126 39.3602 16.8841 39.3772 16.4548C39.3626 16.0297 39.4357 15.6064 39.5917 15.2122C39.7478 14.8181 39.9832 14.4621 40.2827 14.1676C40.8603 13.5996 41.6296 13.2818 42.4304 13.2803L42.5162 13.2812C43.4821 13.2812 44.2401 13.5766 44.7902 14.1673C45.0677 14.4743 45.2835 14.8344 45.425 15.2269C45.5665 15.6194 45.6311 16.0367 45.615 16.4548C45.6321 16.8858 45.5642 17.316 45.4156 17.7196C45.267 18.1233 45.0406 18.4922 44.7498 18.8044C44.4565 19.1005 44.1082 19.3335 43.7255 19.4897C43.3429 19.6459 42.9336 19.7222 42.5218 19.714L42.4358 19.7108ZM39.6589 41.9262V22.2251C39.6587 21.9777 39.7661 21.854 39.9809 21.854H44.931C45.1455 21.854 45.2528 21.9777 45.253 22.2251V41.9262C45.253 42.2014 45.1456 42.3388 44.931 42.3385H40.0212C39.7925 42.3385 39.6721 42.2152 39.6601 41.9684L39.6589 41.9262Z" fill="#FF9A00"/>
</g>
<defs>
<clipPath id="clip0_324_942">
<rect width="60" height="60" fill="white"/>
</clipPath>
</defs>
</svg>
