<svg width="60" height="60" viewBox="0 0 60 60" fill="none" xmlns="http://www.w3.org/2000/svg">
<path d="M11.0667 51.0019L6.85547 3.75H53.1455L48.9286 50.9944L29.9723 56.25L11.0667 51.0019Z" fill="#1572B6"/>
<path d="M30 52.2336L45.3188 47.9868L48.9225 7.61426H30V52.2336Z" fill="#33A9DC"/>
<path d="M30 24.7329H37.6688L38.1975 18.7986H30V13.0029H44.5312L44.3925 14.5573L42.9694 30.5286H30V24.7329Z" fill="white"/>
<path d="M30.0348 39.7839L30.0086 39.7914L23.5548 38.0477L23.1423 33.4258H17.3242L18.1361 42.5252L30.0067 45.8214L30.0348 45.8139V39.7839Z" fill="#EBEBEB"/>
<path d="M37.1763 30.2832L36.4788 38.0438L30.0156 39.7876V45.8176L41.8956 42.5251L41.9838 41.5463L42.9906 30.2832H37.1763Z" fill="white"/>
<path d="M30.0201 13.0029V18.7986H16.0213L15.9051 17.4954L15.6407 14.5573L15.502 13.0029H30.0201ZM29.9995 24.7329V30.5286H23.6263L23.5101 29.2254L23.2476 26.2873L23.1088 24.7329H29.9995Z" fill="#EBEBEB"/>
</svg>
