<svg width="60" height="60" viewBox="0 0 60 60" fill="none" xmlns="http://www.w3.org/2000/svg">
<g clip-path="url(#clip0_324_950)">
<path d="M0 0H60V60H0V0Z" fill="#F7DF1E"/>
<path d="M15.7756 50.1406L20.367 47.3618C21.253 48.9324 22.0588 50.2613 23.9916 50.2613C25.8444 50.2613 27.0127 49.5366 27.0127 46.7175V27.5461H32.6511V46.7972C32.6511 52.6371 29.2278 55.2954 24.2333 55.2954C19.7227 55.2954 17.1045 52.9594 15.7754 50.1401M35.7137 49.5364L40.3046 46.8783C41.5133 48.852 43.0841 50.3018 45.8628 50.3018C48.1993 50.3018 49.689 49.1337 49.689 47.5226C49.689 45.5895 48.1585 44.9046 45.5809 43.7773L44.1716 43.1726C40.1035 41.4413 37.4052 39.2663 37.4052 34.6749C37.4052 30.4458 40.6271 27.2236 45.6617 27.2236C49.2463 27.2236 51.8239 28.4724 53.6764 31.7346L49.2861 34.5542C48.3193 32.8224 47.2726 32.1378 45.6615 32.1378C44.0101 32.1378 42.9629 33.185 42.9629 34.5542C42.9629 36.2457 44.0101 36.9307 46.4265 37.9779L47.836 38.5819C52.629 40.6362 55.3273 42.7304 55.3273 47.4422C55.3273 52.5174 51.3402 55.2961 45.9835 55.2961C40.7478 55.2961 37.3646 52.7991 35.7134 49.5366" fill="black"/>
</g>
<defs>
<clipPath id="clip0_324_950">
<rect width="60" height="60" fill="white"/>
</clipPath>
</defs>
</svg>
