<svg width="60" height="60" viewBox="0 0 60 60" fill="none" xmlns="http://www.w3.org/2000/svg">
<g clip-path="url(#clip0_324_992)">
<mask id="mask0_324_992" style="mask-type:luminance" maskUnits="userSpaceOnUse" x="0" y="0" width="60" height="60">
<path d="M0 0H60V60H0V0Z" fill="white"/>
</mask>
<g mask="url(#mask0_324_992)">
<path d="M28.035 0.0153125C27.905 0.0278125 27.495 0.0703125 27.125 0.0978125C18.605 0.867813 10.625 5.46531 5.565 12.5328C2.77249 16.4131 0.956215 20.9092 0.27 25.6403C0.03 27.2903 0 27.7753 0 30.0103C0 32.2453 0.03 32.7328 0.27 34.3803C1.9 45.6478 9.92 55.1128 20.7925 58.6203C22.74 59.2478 24.7925 59.6753 27.125 59.9353C28.035 60.0353 31.965 60.0353 32.875 59.9353C36.9025 59.4878 40.3175 58.4903 43.6825 56.7728C44.2 56.5103 44.3 56.4378 44.23 56.3803C42.584 54.2096 40.9548 52.0262 39.3425 49.8303L34.545 43.3478L28.535 34.4503C26.5353 31.4743 24.5169 28.511 22.48 25.5603C22.4575 25.5528 22.435 29.5053 22.4225 34.3353C22.405 42.7853 22.3975 43.1253 22.2925 43.3253C22.1893 43.5582 22.0068 43.7469 21.7775 43.8578C21.59 43.9528 21.4275 43.9703 20.54 43.9703H19.525L19.255 43.8003C19.0879 43.6948 18.9523 43.5463 18.8625 43.3703L18.7375 43.1078L18.75 31.3478L18.7675 19.5828L18.95 19.3528C19.0711 19.2073 19.2187 19.086 19.385 18.9953C19.625 18.8778 19.7175 18.8678 20.735 18.8678C21.93 18.8678 22.13 18.9128 22.44 19.2528C22.5275 19.3478 25.7825 24.2528 29.6775 30.1578L41.5125 48.0878L46.2625 55.2828L46.505 55.1253C48.7913 53.606 50.8639 51.7873 52.6675 49.7178C56.4475 45.3908 58.8997 40.0656 59.73 34.3803C59.97 32.7303 60 32.2453 60 30.0103C60 27.7753 59.97 27.2903 59.73 25.6403C58.1 14.3753 50.08 4.90781 39.2075 1.40031C37.1754 0.754236 35.0831 0.316156 32.9625 0.0928125C32.3975 0.0328125 28.5225 -0.0321875 28.0375 0.0178125M40.32 18.1678C40.4597 18.2377 40.584 18.3347 40.6857 18.4532C40.7874 18.5716 40.8645 18.7092 40.9125 18.8578C40.9575 19.0078 40.97 22.2703 40.9575 29.6203L40.94 40.1653L39.0825 37.3153L37.2175 34.4653V26.8003C37.2175 21.8428 37.24 19.0578 37.275 18.9228C37.3169 18.7668 37.3898 18.6208 37.4895 18.4936C37.5892 18.3665 37.7135 18.2608 37.855 18.1828C38.0975 18.0578 38.185 18.0478 39.105 18.0478C39.9725 18.0478 40.125 18.0603 40.32 18.1653" fill="black"/>
</g>
</g>
<defs>
<clipPath id="clip0_324_992">
<rect width="60" height="60" fill="white"/>
</clipPath>
</defs>
</svg>
