<svg width="60" height="60" viewBox="0 0 60 60" fill="none" xmlns="http://www.w3.org/2000/svg">
<path d="M10.6252 0H49.3748C55.2502 0 60 4.87163 60 10.8976V49.1024C60 55.1284 55.2502 60 49.3748 60H10.6252C4.74984 60 0 55.1284 0 49.1024V10.8976C0 4.87163 4.74984 0 10.6252 0Z" fill="#001E36"/>
<path d="M21.5002 14.875C20.7502 14.875 20.0002 14.875 19.2253 14.9003C18.45 14.9252 17.7248 14.9252 17.0498 14.9505C16.3748 14.9753 15.75 14.9753 15.15 15.0002C14.5748 15.025 14.175 15.025 13.7498 15.025C13.575 15.025 13.5 15.1248 13.5 15.3002V41.0252C13.5 41.2502 13.5998 41.3505 13.8 41.3505H18.6502C18.825 41.3252 18.9502 41.1752 18.9248 41.0003V32.9753C19.3997 32.9753 19.7498 32.9753 20.0002 33.0002C20.25 33.025 20.6498 33.025 21.2498 33.025C23.3002 33.025 25.1752 32.8 26.8748 32.1752C28.5 31.5752 29.9002 30.5252 30.9 29.125C31.9 27.725 32.4 25.95 32.4 23.8C32.4 22.675 32.2003 21.6002 31.8253 20.5502C31.428 19.4804 30.8055 18.5085 30 17.7002C29.0493 16.7765 27.9049 16.0762 26.6498 15.6498C25.2497 15.1248 23.55 14.875 21.5002 14.875ZM22.058 19.7992C22.9486 19.8161 23.8158 19.9717 24.6248 20.2998C25.35 20.575 25.95 21.0752 26.3752 21.7248C26.7739 22.3972 26.9734 23.1691 26.9503 23.9505C26.9503 25.0502 26.7 25.9005 26.175 26.5253C25.6247 27.1502 24.9248 27.6255 24.1252 27.8505C23.1998 28.1505 22.2248 28.3 21.2498 28.3H19.9247C19.6247 28.3 19.3003 28.2752 18.9502 28.2503V19.8503C19.125 19.825 19.4752 19.8002 19.9753 19.8255C20.4502 19.8002 21.0248 19.8002 21.675 19.8002C21.8031 19.797 21.9308 19.7967 22.058 19.7992ZM43.0252 21.0756C41.25 21.0756 39.7748 21.3503 38.6002 21.9503C37.5253 22.4505 36.6 23.2502 35.9752 24.25C35.4253 25.1753 35.1248 26.2 35.1248 27.2753C35.1035 28.1597 35.3011 29.0357 35.7 29.8253C36.1676 30.6661 36.8167 31.392 37.6003 31.9502C38.7001 32.7023 39.8935 33.3075 41.1502 33.7502C42.375 34.225 43.2 34.6 43.6003 34.9248C44.0002 35.2502 44.2003 35.575 44.2003 35.9252C44.2003 36.3752 43.9252 36.8003 43.5253 36.9752C43.0753 37.2002 42.4003 37.3253 41.4502 37.3253C40.4503 37.3253 39.45 37.2002 38.4998 36.9503C37.4089 36.7067 36.3629 36.2933 35.4 35.7255C35.325 35.6753 35.25 35.6505 35.175 35.7006C35.1 35.7503 35.0752 35.8502 35.0752 35.9252V40.2752C35.0503 40.4753 35.175 40.6502 35.3503 40.75C36.161 41.1287 37.0186 41.3978 37.9003 41.5502C39.0253 41.7752 40.1498 41.875 41.2997 41.875C43.0997 41.875 44.6002 41.6003 45.825 41.0753C46.95 40.6253 47.925 39.8505 48.6248 38.8502C49.2803 37.8668 49.6204 36.7069 49.5998 35.5253C49.6245 34.6327 49.427 33.7479 49.0252 32.9505C48.5498 32.1002 47.8748 31.4003 47.0498 30.8753C45.8429 30.1174 44.5507 29.5047 43.2 29.05C42.5968 28.8003 42.0046 28.5251 41.4248 28.225C41.1 28.0502 40.8 27.8252 40.575 27.55C40.425 27.3498 40.3252 27.1253 40.3252 26.9003C40.3252 26.6753 40.4002 26.4255 40.5248 26.2253C40.7002 25.9755 40.9748 25.8002 41.2997 25.7252C41.775 25.6005 42.3 25.525 42.7997 25.5498C43.7498 25.5498 44.6747 25.675 45.6 25.8752C46.4503 26.05 47.25 26.3252 48 26.7255C48.0998 26.7752 48.225 26.7752 48.45 26.7255C48.4891 26.6965 48.5208 26.6588 48.5425 26.6153C48.5642 26.5718 48.5754 26.5238 48.5751 26.4752V22.4003C48.5751 22.3 48.5498 22.2002 48.525 22.1003C48.4748 22.0005 48.375 21.9002 48.2751 21.8753C47.5856 21.5935 46.8631 21.4002 46.125 21.3002C45.0985 21.1507 44.0625 21.076 43.0252 21.0756Z" fill="#31A8FF"/>
</svg>
