<svg width="60" height="60" viewBox="0 0 60 60" fill="none" xmlns="http://www.w3.org/2000/svg">
<g clip-path="url(#clip0_324_975)">
<path d="M13.0922 4.84352L30 3.06836L46.9078 4.84398L60 22.273L30 56.9305L0 22.273L13.0922 4.84352Z" fill="#FDB300"/>
<path d="M12.1523 22.2734L30 56.9309L0 22.2734H12.1523ZM47.8477 22.2734L30 56.9309L60 22.2734H47.8477Z" fill="#EA6C00"/>
<path d="M12.1523 22.2734H47.8477L30 56.9309L12.1523 22.2734Z" fill="#FDAD00"/>
<path d="M30 3.06836L13.0922 4.84352L12.1523 22.273L30 3.06836ZM30 3.06836L46.9078 4.84352L47.8477 22.273L30 3.06836Z" fill="#FDD231"/>
<path d="M60.0004 22.2733L46.9082 4.84375L47.848 22.2733H60.0004Z" fill="#FDAD00"/>
<path d="M30 3.06836L12.1523 22.273H47.8477L30 3.06836Z" fill="#FEEEB7"/>
<path d="M0 22.2733L13.0922 4.84375L12.1523 22.2733H0Z" fill="#FDAD00"/>
</g>
<defs>
<clipPath id="clip0_324_975">
<rect width="60" height="60" fill="white"/>
</clipPath>
</defs>
</svg>
