<svg width="60" height="60" viewBox="0 0 60 60" fill="none" xmlns="http://www.w3.org/2000/svg">
<g clip-path="url(#clip0_324_922)">
<path d="M10.6252 0.75H49.3748C55.2502 0.75 60 5.49984 60 11.3752V48.6248C60 54.5002 55.2502 59.25 49.3748 59.25H10.6252C4.74984 59.25 0 54.5002 0 48.6248V11.3752C0 5.49984 4.74984 0.75 10.6252 0.75Z" fill="#470137"/>
<path d="M31.5498 16.1251L24.0498 28.5001L32.0495 41.6251C32.0996 41.725 32.1245 41.8253 32.0996 41.9251C32.0748 42.025 31.9745 41.95 31.8245 41.9753H26.0996C25.6998 41.9753 25.4246 41.95 25.2498 41.7001C24.7248 40.6501 24.1745 39.625 23.6495 38.575C23.1245 37.5503 22.5498 36.5003 21.9498 35.425C21.3498 34.3497 20.7498 33.2753 20.1498 32.1751H20.0996C19.5746 33.25 18.9995 34.3253 18.4248 35.4001C17.8535 36.4644 17.2868 37.5311 16.7246 38.6003C16.1495 39.6503 15.5748 40.7251 14.9996 41.7503C14.8998 42.0001 14.6996 42.025 14.4245 42.025H8.92463C8.82478 42.025 8.74978 42.0751 8.74978 41.95C8.73858 41.9032 8.73722 41.8547 8.74577 41.8074C8.75433 41.7601 8.77261 41.7151 8.79947 41.6753L16.5746 28.9253L8.99963 16.1003C8.92463 16 8.89978 15.9001 8.94947 15.85C8.99962 15.775 9.09947 15.7501 9.19978 15.7501H14.8745C14.9996 15.7501 15.1248 15.775 15.2246 15.8003C15.3245 15.85 15.3995 15.925 15.4745 16.0253C15.9498 17.1001 16.4996 18.175 17.0748 19.2503C17.6748 20.3251 18.2495 21.3751 18.8748 22.4251C19.4748 23.4751 20.0246 24.5251 20.5496 25.6H20.5998C21.1248 24.5003 21.6746 23.425 22.2245 22.375C22.7743 21.325 23.3495 20.275 23.9246 19.225C24.4998 18.175 25.0496 17.1001 25.5995 16.075C25.6248 15.9751 25.6745 15.8753 25.7495 15.8251C25.8498 15.775 25.9496 15.7501 26.0748 15.775H31.3496C31.3792 15.7683 31.4098 15.7675 31.4397 15.7727C31.4696 15.7779 31.4982 15.789 31.5237 15.8053C31.5493 15.8216 31.5714 15.8428 31.5888 15.8677C31.6061 15.8926 31.6184 15.9206 31.6248 15.9503C31.6496 15.9751 31.5995 16.075 31.5498 16.1251ZM43.0998 42.5003C41.2496 42.5251 39.3995 42.1501 37.7246 41.3753C36.1496 40.6501 34.8498 39.4501 33.9498 37.975C33.0245 36.4501 32.5745 34.5503 32.5745 32.275C32.5496 30.4253 33.0245 28.6 33.9498 27.0001C34.8995 25.375 36.2748 24.025 37.9248 23.125C39.6746 22.15 41.7746 21.6751 44.2496 21.6751C44.3748 21.6751 44.5496 21.6751 44.7746 21.7C44.9996 21.7253 45.2495 21.7253 45.5495 21.7501V13.8503C45.5495 13.675 45.6245 13.5751 45.7998 13.5751H50.8745C50.9996 13.5503 51.0995 13.6501 51.1248 13.75V37.6C51.1248 38.05 51.1496 38.5501 51.1745 39.1C51.2246 39.625 51.2495 40.1251 51.2748 40.5503C51.2748 40.7251 51.1998 40.8751 51.0245 40.9501C49.7151 41.5006 48.3483 41.9031 46.9496 42.1501C45.6746 42.3751 44.3996 42.5003 43.0998 42.5003ZM45.5495 37.5001V26.5C45.3245 26.4503 45.0995 26.4001 44.8745 26.3753C44.6004 26.3458 44.3251 26.3291 44.0495 26.3251C43.0745 26.3251 42.0995 26.5253 41.2248 26.9753C40.3704 27.4009 39.6389 28.0375 39.0995 28.825C38.5496 29.6251 38.2745 30.7 38.2745 32.0003C38.2532 32.8777 38.3974 33.7512 38.6996 34.5751C38.9495 35.2501 39.3245 35.8501 39.8246 36.3503C40.3065 36.8104 40.8884 37.1527 41.5248 37.3501C42.1998 37.5751 42.8996 37.675 43.5995 37.675C43.9745 37.675 44.3246 37.6501 44.6495 37.6253C44.9748 37.6501 45.2495 37.6 45.5495 37.5001Z" fill="#FF61F6"/>
</g>
<defs>
<clipPath id="clip0_324_922">
<rect width="60" height="60" fill="white"/>
</clipPath>
</defs>
</svg>
