<svg width="40" height="40" viewBox="0 0 40 40" fill="none" xmlns="http://www.w3.org/2000/svg">
<g clip-path="url(#clip0_158_959)">
<path d="M33.3569 0H6.64248C2.97556 0 0.00292969 3.04446 0.00292969 6.8V33.136C0.00292969 36.8915 2.97556 39.936 6.64248 39.936H33.3569C37.0238 39.936 39.9964 36.8915 39.9964 33.136V6.8C39.9964 3.04446 37.0238 0 33.3569 0Z" fill="#330000"/>
<path d="M19.3837 23.9664H13.1863L11.9252 27.9781C11.9081 28.0512 11.8665 28.116 11.8077 28.1611C11.7489 28.2063 11.6766 28.229 11.6032 28.2254H8.46421C8.28528 28.2254 8.22269 28.1246 8.27643 27.923L13.6423 12.0962C13.6959 11.9314 13.7496 11.7436 13.8032 11.533C13.8735 11.1662 13.9094 10.7938 13.9105 10.4202C13.9069 10.394 13.9092 10.3674 13.9173 10.3423C13.9255 10.3173 13.9392 10.2945 13.9574 10.2758C13.9756 10.2572 13.9979 10.2431 14.0223 10.2347C14.0468 10.2264 14.0728 10.224 14.0983 10.2277H18.3642C18.4891 10.2277 18.5607 10.2735 18.5788 10.3653L24.6689 27.9506C24.7226 28.134 24.6689 28.2256 24.508 28.2254H21.0201C20.9603 28.2321 20.9 28.2163 20.8507 28.1809C20.8014 28.1456 20.7662 28.093 20.7519 28.0331L19.3837 23.9664ZM14.152 20.5043H18.391L18.3306 20.3L18.2336 19.9765L18.1644 19.7493L18.0539 19.3915L17.8191 18.6384L17.6126 17.9707L17.0762 16.2315C16.9428 15.7992 16.8146 15.3651 16.6919 14.9294L16.5938 14.5758L16.4792 14.1578L16.3042 13.5098L16.2714 13.3877H16.2447C16.1104 14.0472 15.9469 14.7001 15.7547 15.3445L15.3567 16.6558L15.1377 17.3803L14.9166 18.1138C14.8767 18.2462 14.8369 18.3772 14.7971 18.5067L14.6784 18.8904L14.5603 19.2651L14.4428 19.6306L14.3259 19.9869C14.2872 20.1042 14.2485 20.2199 14.2098 20.3341L14.152 20.5043ZM28.2905 13.1403C28.0169 13.1515 27.744 13.1035 27.4898 12.9993C27.2355 12.8952 27.0056 12.7372 26.815 12.5358C26.625 12.3256 26.4775 12.079 26.3808 11.8102C26.2841 11.5415 26.2401 11.2558 26.2515 10.9696C26.2417 10.6862 26.2905 10.404 26.3945 10.1412C26.4985 9.87851 26.6555 9.64119 26.8551 9.44479C27.2402 9.06617 27.7531 8.85429 28.2869 8.85327L28.3441 8.85391C28.9881 8.85391 29.4934 9.05082 29.8601 9.44463C30.0451 9.64931 30.189 9.88936 30.2833 10.151C30.3777 10.4127 30.4207 10.6909 30.41 10.9696C30.4214 11.257 30.3762 11.5437 30.2771 11.8128C30.178 12.0819 30.027 12.3279 29.8332 12.536C29.6376 12.7334 29.4055 12.8888 29.1504 12.9929C28.8953 13.097 28.6224 13.1479 28.3478 13.1424L28.2905 13.1403ZM26.4393 27.9506V14.8165C26.4391 14.6516 26.5107 14.5691 26.6539 14.5691H29.954C30.097 14.5691 30.1685 14.6516 30.1686 14.8165V27.9506C30.1686 28.134 30.0971 28.2256 29.954 28.2254H26.6808C26.5283 28.2254 26.4481 28.1432 26.44 27.9787L26.4393 27.9506Z" fill="#FF9A00"/>
</g>
<defs>
<clipPath id="clip0_158_959">
<rect width="40" height="40" fill="white"/>
</clipPath>
</defs>
</svg>
