<svg width="737" height="131" viewBox="0 0 737 131" fill="none" xmlns="http://www.w3.org/2000/svg">
<path d="M311.47 43.2654C311.47 43.4176 311.47 43.5508 311.47 43.703H297.353C297.353 43.5508 297.353 43.4176 297.353 43.2654C297.353 39.3651 300.53 36.2068 304.43 36.2068C308.33 36.2068 311.489 39.3842 311.489 43.2654" fill="#D5BF87"/>
<path d="M347.639 43.2459C347.639 43.3981 347.639 43.5313 347.639 43.6835H341.322C341.322 43.5313 341.322 43.3981 341.322 43.2459C341.322 22.8501 324.789 6.31661 304.412 6.31661C284.035 6.31661 267.483 22.8501 267.483 43.2459C267.483 43.3981 267.483 43.5313 267.483 43.6835H261.166C261.166 43.5313 261.166 43.3981 261.166 43.2459C261.166 19.3684 280.515 0 304.412 0C328.308 0 347.658 19.3494 347.658 43.2459" fill="#D5BF87"/>
<path d="M334.889 43.2461C334.889 43.3983 334.889 43.5315 334.889 43.6837H328.782C328.782 43.5315 328.782 43.3983 328.782 43.2461C328.782 29.7757 317.861 18.8359 304.391 18.8359C290.92 18.8359 279.98 29.7757 279.98 43.2461C279.98 43.3983 279.98 43.5315 279.98 43.6837H273.873C273.873 43.5315 273.873 43.3983 273.873 43.2461C273.873 26.3891 287.534 12.7476 304.391 12.7476C321.248 12.7476 334.889 26.3891 334.889 43.2461Z" fill="#D5BF87"/>
<path d="M323.227 43.2463V43.6839H317.31C317.31 43.5507 317.31 43.3985 317.31 43.2463C317.31 36.0925 311.526 30.2896 304.372 30.2896C297.219 30.2896 291.416 36.0925 291.416 43.2463C291.416 43.3985 291.416 43.5507 291.416 43.6839H285.518V43.2463C285.518 32.8581 293.946 24.4106 304.372 24.4106C314.798 24.4106 323.208 32.8391 323.208 43.2463" fill="#D5BF87"/>
<path d="M347.333 49.2584C347.143 50.8185 346.838 52.3406 346.42 53.8437H262.363C261.945 52.3597 261.659 50.8185 261.45 49.2584H347.314H347.333Z" fill="#D5BF87"/>
<path d="M344.537 59.0948C343.852 60.674 343.034 62.1961 342.121 63.6801H266.683C265.751 62.2151 264.952 60.674 264.248 59.0948H344.537Z" fill="#D5BF87"/>
<path d="M338.068 69.045C336.622 70.6813 335.005 72.2033 333.255 73.6303H275.53C273.799 72.2224 272.182 70.6813 270.717 69.045H338.088H338.068Z" fill="#D5BF87"/>
<path d="M324.732 78.9948C318.681 81.9247 311.737 83.58 304.393 83.58C297.049 83.58 290.104 81.9247 284.035 78.9948H324.732Z" fill="#D5BF87"/>
<path d="M100.685 8.52407H83.4095V9.39925C85.5785 10.0461 84.7413 19.9776 81.4879 28.6534H81.5831L70.8334 57.9343C68.2839 58.6763 65.7535 59.7037 63.2992 60.9785C61.0161 62.1771 58.9042 63.8323 56.7162 65.2212C54.4331 66.6672 51.9978 67.7137 49.4483 68.3605C46.7086 69.0455 43.9118 69.3118 41.115 69.2548C40.5632 69.2548 40.0305 69.2167 39.4978 69.1786C36.3395 68.9503 33.2002 68.2463 30.2131 67.0667C27.2641 65.9061 24.4673 64.2509 21.9749 62.101C19.4825 59.9511 17.3516 57.2874 15.7154 54.2433C13.965 50.9518 12.8615 47.2798 12.3858 43.4746C12.1766 41.8384 12.0814 40.2022 12.0814 38.5469C12.0814 20.6626 25.3425 10.9214 36.8532 10.9214C53.615 10.9214 61.4537 28.0636 61.4537 28.0636L62.1386 27.8544L58.3144 11.4921C58.3144 11.4921 52.4734 6.9259 36.8722 6.9259C19.4254 6.9259 0 19.8635 0 41.6862C0 45.6436 0.532728 49.62 1.71233 53.3491C2.79681 56.7928 4.39498 59.9891 6.44978 62.7859C8.46652 65.5637 10.8828 67.9229 13.5464 69.8446C16.2862 71.8232 19.2732 73.3453 22.3935 74.4297C25.6089 75.5523 28.9574 76.1992 32.325 76.4275C35.7877 76.6558 39.2694 76.4275 42.6941 75.7425C47.9262 74.7151 52.9871 72.6223 57.4963 69.445C60.3501 67.4282 63.0709 65.1642 66.0579 63.4138C66.6477 63.0713 67.2565 62.7288 67.8654 62.4244C68.1317 62.2912 69.4445 61.8727 69.5397 61.6253L64.65 74.9815H68.303L73.7634 60.3126C73.9346 60.1413 74.0868 60.0081 74.2581 59.8369C74.4293 59.6657 74.9811 59.6466 75.2094 59.5705C77.169 59.0758 79.1858 58.7144 81.2025 58.8856C82.1728 58.9617 83.1241 59.3042 84.0564 59.5705C86.0731 60.1603 88.0709 60.8072 90.1637 61.3019C97.1082 63.0332 103.786 64.5553 108.105 60.655L113.356 74.9625H125.114L100.761 8.52407H100.685ZM90.8296 57.6489C89.0222 57.2494 87.2147 56.8689 85.3882 56.6977C84.9126 56.6406 84.4369 56.6025 83.9613 56.5835C80.9171 56.3932 77.8349 56.4883 74.8289 57.0211L90.7916 13.585L106.716 56.964C106.811 57.2113 105.213 58.1816 105.023 58.2768C104.357 58.6383 103.653 58.8666 102.93 59.0188C101.275 59.3613 99.5815 59.2661 97.9072 59.0759C95.51 58.7715 93.1698 58.2007 90.8106 57.6679" fill="#5898AB"/>
<path d="M159.969 73.6294C167.561 72.7732 171.898 68.5875 171.575 62.2899C171.156 56.0875 166.324 51.9018 155.384 48.5722C140.03 44.2914 130.194 36.2815 130.194 26.2739C130.194 17.5029 137.462 8.63689 153.634 7.01969C169.064 5.30736 179.414 11.4908 179.414 11.4908L183.257 27.8721L182.591 28.0623C182.591 28.0623 171.156 8.14223 153.881 9.94969C146.366 10.7107 142.028 14.9915 142.37 21.2891C142.789 27.3964 147.621 31.6773 158.561 35.0068C173.915 39.1925 183.752 47.2975 183.752 57.3051C183.752 66.076 176.484 74.828 160.312 76.5594C144.882 78.1766 130.936 72.0692 130.936 71.9741L125.057 55.688L125.723 55.4977C125.723 55.4977 142.77 75.4178 159.969 73.6103" fill="#5898AB"/>
<path d="M227.189 60.6734C222.851 64.5737 216.173 63.0517 209.248 61.3393C202.665 59.8173 195.891 58.2001 192.067 62.1004L187.387 74.9619H183.715L200.743 28.6528H200.667C203.92 19.977 204.757 10.0645 202.589 9.39861V8.54248H219.864L244.236 74.9619H232.478L227.227 60.6734H227.189ZM194.141 56.4687C198.726 54.9466 204.396 56.2784 209.99 57.6102C216.325 59.1323 222.585 60.5593 225.838 56.9444L209.894 13.5843L194.122 56.4687H194.141Z" fill="#5898AB"/>
<path d="M408.066 60.6734C403.728 64.5737 397.05 63.0517 390.125 61.3393C383.542 59.8173 376.768 58.2001 372.944 62.1004L368.264 74.9619H364.592L381.62 28.6528H381.544C384.797 19.977 385.634 10.0645 383.466 9.39861V8.54248H400.741L425.113 74.9619H413.355L408.104 60.6734H408.066ZM375.018 56.4687C379.603 54.9466 385.273 56.2784 390.867 57.6102C397.202 59.1323 403.462 60.5593 406.715 56.9444L390.771 13.5843L374.999 56.4687H375.018Z" fill="#5898AB"/>
<path d="M477.568 66.001V74.9622H431.088V28.6532C431.088 18.9309 428.843 10.0649 426.674 9.39896V8.63794H441.952V71.0619H459.969C468.474 71.0619 476.236 68.5885 476.826 66.02H477.568V66.001Z" fill="#5898AB"/>
<path d="M497.85 34.9314C501.94 33.1239 506.107 34.0752 510.197 35.0265C513.945 35.9778 517.541 36.834 520.376 34.9314L521.289 38.7366C517.541 40.7343 513.622 39.783 509.436 38.8317C505.441 37.8804 501.35 36.9291 497.831 39.2122V71.0425H515.848C524.353 71.0425 532.115 68.474 532.705 66.0007H533.447V74.9619H486.967V28.6528C486.967 18.9306 484.722 10.0645 482.553 9.39861V8.54248H533.447V17.5037H532.705C532.115 15.0303 524.353 12.4618 515.848 12.4618H497.831V34.9504L497.85 34.9314Z" fill="#5898AB"/>
<path d="M572.851 35.9023C577.436 32.8582 586.873 33.9998 591.534 35.0462C595.282 35.9975 603.882 36.8536 606.717 34.951V59.5325L603.121 63.5279C580.423 87.5386 538.452 77.1505 538.452 41.7052C538.452 19.8825 557.897 6.9259 575.324 6.9259C590.926 6.9259 596.767 11.4921 596.767 11.4921L600.61 27.8734L599.944 28.0636C599.944 28.0636 592.105 10.9214 575.324 10.9214C563.814 10.9214 550.553 20.6436 550.553 38.5469C550.553 66.9336 579.091 75.324 595.853 64.9358V39.6885C593.932 39.4031 592.181 39.1177 590.849 38.8323C586.835 37.881 578.007 36.9297 574.582 39.2129L572.832 35.8833L572.851 35.9023Z" fill="#5898AB"/>
<path d="M679.416 74.2012L679.587 74.9622C647.3 83.9234 660.238 49.1441 640.698 49.1441C631.356 49.1441 627.019 55.3465 627.019 62.8617V74.9622H616.174V28.6532C616.174 18.9309 614.005 10.0649 611.76 9.39896V8.63794H642.296C663.073 8.63794 670.074 15.7917 670.074 28.8434C670.074 39.2316 665.66 45.9097 653.56 48.1928C668.666 56.0124 671.425 76.3891 679.435 74.2012M642.277 45.2248C654.549 45.2248 659.21 40.1829 659.21 28.8434C659.21 17.504 654.53 12.4622 642.277 12.4622H627V51.1418C630.082 47.3366 634.933 45.2248 640.679 45.2248H642.258H642.277Z" fill="#5898AB"/>
<path d="M699.849 34.9314C703.939 33.1239 708.106 34.0752 712.196 35.0265C715.944 35.9778 719.54 36.834 722.375 34.9314L723.288 38.7366C719.54 40.7343 715.621 39.783 711.435 38.8317C707.44 37.8804 703.349 36.9291 699.83 39.2122V71.0425H717.847C726.352 71.0425 734.114 68.474 734.704 66.0007H735.446V74.9619H688.966V28.6528C688.966 18.9306 686.721 10.0645 684.552 9.39861V8.54248H735.446V17.5037H734.704C734.114 15.0303 726.352 12.4618 717.847 12.4618H699.83V34.9504L699.849 34.9314Z" fill="#5898AB"/>
<path d="M621.764 123.269C617.522 122.907 615.391 120.738 615.391 116.724C615.391 114.346 616.133 111.834 617.617 109.19C618.492 107.592 619.614 106.031 620.946 104.509C622.278 102.987 623.743 101.617 625.341 100.381C626.939 99.1441 628.557 98.1738 630.231 97.4698C631.905 96.7468 633.503 96.3853 635.063 96.3853C637.803 96.3853 639.154 97.3937 639.154 99.4104C639.154 100.761 638.735 102.264 637.917 103.92C637.099 105.575 636.243 106.621 635.387 107.059C635.311 107.078 635.216 107.097 635.101 107.097C635.025 107.097 634.968 107.078 634.968 107.021L636.338 104.776C637.27 103.235 637.746 101.884 637.746 100.723C637.746 99.9051 637.518 99.106 637.08 98.364C636.643 97.622 635.843 97.2415 634.721 97.2415C633.332 97.2415 631.924 97.622 630.478 98.4021C629.032 99.1821 627.624 100.191 626.273 101.465C624.923 102.74 623.686 104.129 622.582 105.67C621.479 107.211 620.604 108.714 619.938 110.198C618.53 113.375 617.826 115.944 617.826 117.904C617.826 120.853 619.329 122.337 622.335 122.337C625.341 122.337 629.089 120.491 634.017 116.781C635.14 115.925 636.604 114.726 638.393 113.185C640.181 111.644 642.255 109.761 644.672 107.554C644.348 107.573 643.929 107.611 643.435 107.649C642.94 107.687 642.35 107.763 641.703 107.877C641.418 107.934 641.171 107.972 640.923 108.029C640.676 108.067 640.448 108.086 640.219 108.086C639.668 108.029 639.439 107.896 639.515 107.668C639.63 106.64 640.143 106.146 641.095 106.146C641.951 106.26 642.75 106.336 643.511 106.393C644.272 106.45 644.995 106.469 645.68 106.469C646.764 105.48 648.191 104.091 649.961 102.302C651.749 100.514 653.861 98.345 656.315 95.7384C659.493 92.4089 661.414 90.7346 662.118 90.7346C662.423 90.7346 662.575 91.02 662.575 91.5718C662.575 91.8001 662.556 92.0664 662.499 92.3899C662.442 92.7133 662.366 93.1129 662.251 93.5505C661.966 94.5969 661.681 95.2438 661.376 95.4531C660.52 96.0619 659.816 96.842 659.245 97.7933C658.675 98.7446 658.104 99.81 657.533 100.971C656.962 102.15 656.429 103.216 655.935 104.148C655.459 105.08 655.022 105.898 654.622 106.602L658.637 106.526C659.626 106.526 660.121 106.602 660.121 106.735C660.121 106.754 660.101 106.812 660.044 106.85C659.569 107.154 657.59 107.42 654.089 107.687C651.521 112.691 650.246 116.096 650.246 117.961C650.246 119.235 650.646 119.863 651.445 119.863C651.749 119.863 652.13 119.673 652.605 119.293C653.043 118.931 653.328 118.76 653.442 118.76C653.442 118.703 653.442 118.684 653.48 118.722C653.499 118.741 653.48 118.76 653.442 118.76C653.309 119.254 652.891 119.711 652.225 120.111C651.559 120.51 650.836 120.719 650.094 120.719C649.409 120.719 648.952 120.491 648.724 120.054C648.496 119.616 648.401 119.007 648.401 118.227C648.401 115.449 649.466 111.891 651.597 107.592L646.631 107.725C642.94 111.34 639.211 114.517 635.501 117.238C629.565 121.538 625.018 123.554 621.84 123.288L621.764 123.269ZM651.901 106.488C652.225 105.86 652.891 104.7 653.88 103.025C654.869 101.351 656.22 99.1821 657.894 96.4995L647.297 106.431L651.901 106.469V106.488Z" fill="#5898AB"/>
<path d="M660.805 118.55C660.006 118.55 659.264 118.341 658.56 117.942C657.875 117.542 657.532 116.876 657.532 115.944C657.532 114.65 657.989 113.109 658.921 111.301C659.853 109.513 660.9 107.649 662.079 105.708C665.314 100.457 667.597 97.8502 668.948 97.8502C669.214 97.8502 669.5 97.9453 669.804 98.1546C670.089 98.3639 670.261 98.5922 670.28 98.8395L667.388 102.74C666.246 104.262 665.238 105.651 664.324 106.945C663.411 108.219 662.631 109.38 661.965 110.407C661.642 110.94 661.261 111.53 660.843 112.196C660.424 112.862 660.063 113.547 659.739 114.251C659.416 114.954 659.264 115.658 659.264 116.381C659.264 116.705 659.359 117.009 659.549 117.276C659.739 117.542 660.082 117.675 660.576 117.675C661.452 117.675 662.612 117.2 664.058 116.248C665.485 115.297 666.912 113.984 668.32 112.291C668.453 112.12 668.605 111.967 668.777 111.834C668.948 111.701 669.081 111.625 669.195 111.625C669.328 111.625 669.404 111.701 669.404 111.872C669.404 111.948 669.309 112.12 669.138 112.348C668.967 112.576 668.815 112.766 668.7 112.9L667.711 114.022C667.159 114.631 666.512 115.297 665.751 116.001C664.99 116.724 664.191 117.333 663.354 117.827C662.517 118.322 661.661 118.569 660.805 118.569V118.55Z" fill="#5898AB"/>
<path d="M670.488 118.665C669.822 118.665 669.156 118.436 668.51 117.961C667.844 117.485 667.482 116.933 667.387 116.305C667.102 114.174 668.452 111.663 671.401 108.733C674.331 105.803 676.957 104.338 679.316 104.338C679.944 104.338 680.439 104.49 680.8 104.795C680.991 104.985 681.143 105.251 681.238 105.575C681.333 105.898 681.409 106.069 681.466 106.069C681.58 106.069 681.675 106.05 681.752 106.012C681.828 105.974 681.923 105.955 682.037 105.955C682.36 105.955 682.665 106.088 682.912 106.336C683.159 106.583 683.293 106.811 683.331 107.002C683.35 107.059 682.475 108.429 680.686 111.092C678.898 113.718 678.08 115.487 678.251 116.439C678.384 117.066 678.688 117.39 679.164 117.39C680.591 117.39 683.217 115.012 687.022 110.274C687.098 110.16 687.193 110.103 687.269 110.103C687.402 110.103 687.478 110.198 687.478 110.388C687.478 110.617 687.345 110.883 687.098 111.206C683.597 115.925 680.895 118.284 679.031 118.284C678.784 118.284 678.555 118.246 678.327 118.151C677.109 117.675 676.5 116.762 676.5 115.411C676.5 114.935 676.557 114.479 676.672 114.003L674.103 116.496C673.323 117.276 672.638 117.827 672.01 118.151C671.382 118.474 670.888 118.646 670.507 118.646L670.488 118.665ZM670.127 117.751C671.725 117.751 673.913 116.001 676.672 112.5L681.067 106.45C680.838 106.069 680.496 105.879 679.982 105.879C678.308 105.879 676.025 107.23 673.152 109.932C670.165 112.69 668.833 114.973 669.137 116.762C669.271 117.428 669.613 117.751 670.127 117.751Z" fill="#5898AB"/>
<path d="M681.925 130.061C681.678 130.061 681.545 129.908 681.545 129.604C681.545 129.471 681.678 129.357 681.925 129.281C682.42 129.204 682.915 129.109 683.409 129.033C683.904 128.957 684.399 128.881 684.893 128.824C685.864 128.52 686.339 127.72 686.339 126.427C686.339 126.065 685.978 125.361 685.255 124.315C684.532 123.287 684.171 122.526 684.171 121.994C684.171 121.214 684.342 120.51 684.684 119.863C685.027 119.216 685.502 118.759 686.111 118.512C684.989 117.96 684.418 117.085 684.418 115.905C684.418 113.946 685.617 111.701 688.014 109.189C690.468 106.659 692.675 105.384 694.597 105.384C695.263 105.384 695.776 105.555 696.176 105.898C696.575 106.24 696.747 106.659 696.747 107.153C696.747 107.838 696.575 108.485 696.252 109.056C695.871 109.779 695.32 110.141 694.597 110.141C693.874 110.141 693.512 109.912 693.512 109.475C693.512 109.17 693.683 108.714 694.045 108.105C694.425 107.477 694.616 107.134 694.616 107.115C694.616 107.058 694.578 107.039 694.483 107.039C693.703 107.115 692.637 107.686 691.248 108.733C690.639 109.208 690.107 109.646 689.65 110.064C689.193 110.483 688.832 110.883 688.546 111.263L686.929 113.622C686.663 114.06 686.397 114.821 686.187 115.905C686.073 116.533 686.206 117.085 686.606 117.523C686.986 117.96 687.5 118.188 688.147 118.188C689.517 118.188 691.343 117.294 693.607 115.506C695.434 114.079 696.899 112.614 698.002 111.149C698.136 110.978 698.307 110.902 698.497 110.902C698.858 110.902 698.878 111.092 698.573 111.472C697.051 113.489 695.282 115.22 693.227 116.685C691.039 118.227 689.25 119.007 687.842 119.007C687.538 119.007 687.272 118.969 687.005 118.873C686.986 118.873 686.948 118.873 686.948 118.854C686.948 118.854 686.91 118.835 686.891 118.835C686.473 119.026 686.149 119.349 685.921 119.787C685.693 120.224 685.578 120.719 685.578 121.271C685.578 121.575 685.978 122.241 686.777 123.249C687.614 124.277 688.014 125.171 688.014 125.932C688.014 127.226 687.291 128.272 685.826 129.071C684.608 129.699 683.295 130.023 681.849 130.023L681.925 130.061Z" fill="#5898AB"/>
<path d="M699.274 118.665C698.608 118.665 697.943 118.436 697.296 117.961C696.63 117.485 696.268 116.933 696.173 116.305C695.888 114.174 697.239 111.663 700.188 108.733C703.118 105.803 705.743 104.338 708.102 104.338C708.73 104.338 709.225 104.49 709.586 104.795C709.777 104.985 709.929 105.251 710.024 105.575C710.119 105.898 710.195 106.069 710.252 106.069C710.366 106.069 710.462 106.05 710.538 106.012C710.614 105.974 710.709 105.955 710.823 105.955C711.147 105.955 711.451 106.088 711.698 106.336C711.946 106.583 712.079 106.811 712.117 107.002C712.136 107.059 711.261 108.429 709.472 111.092C707.684 113.718 706.866 115.487 707.037 116.439C707.17 117.066 707.474 117.39 707.95 117.39C709.377 117.39 712.003 115.012 715.808 110.274C715.884 110.16 715.979 110.103 716.055 110.103C716.188 110.103 716.264 110.198 716.264 110.388C716.264 110.617 716.131 110.883 715.884 111.206C712.383 115.925 709.681 118.284 707.817 118.284C707.57 118.284 707.341 118.246 707.113 118.151C705.895 117.675 705.287 116.762 705.287 115.411C705.287 114.935 705.344 114.479 705.458 114.003L702.889 116.496C702.109 117.276 701.424 117.827 700.796 118.151C700.169 118.474 699.674 118.646 699.293 118.646L699.274 118.665ZM698.894 117.751C700.492 117.751 702.68 116.001 705.439 112.5L709.834 106.45C709.605 106.069 709.263 105.879 708.749 105.879C707.075 105.879 704.792 107.23 701.919 109.932C698.932 112.69 697.6 114.973 697.904 116.762C698.038 117.428 698.38 117.751 698.894 117.751Z" fill="#5898AB"/>
<path d="M716.113 118.702C715.237 118.702 714.534 118.493 714.02 118.055C713.506 117.637 713.259 116.857 713.259 115.753C713.259 115.125 713.449 114.307 713.83 113.337C714.21 112.367 714.705 111.301 715.276 110.16C715.846 109.037 716.436 107.914 717.007 106.811C716.645 106.887 716.322 106.944 716.056 106.944C715.237 106.944 714.819 106.621 714.819 105.993C714.819 105.688 714.933 105.46 715.161 105.289C715.39 105.118 715.618 105.022 715.808 105.003C715.941 105.003 716.075 105.003 716.189 104.965H718.586C719.081 104.338 719.594 103.653 720.108 102.93C720.85 101.997 721.44 101.446 721.897 101.274H722.03C722.22 101.274 722.505 101.37 722.867 101.56C723.304 101.807 723.533 102.054 723.533 102.302C723.533 102.663 722.867 103.577 721.554 105.08C721.801 105.099 722.163 105.118 722.639 105.118H725.816C726.444 105.118 727.091 105.118 727.757 105.099C728.441 105.099 729.012 105.08 729.507 105.061C730.002 105.061 730.287 105.042 730.344 105.042C730.42 105.061 730.477 105.118 730.477 105.175C730.477 105.422 728.841 105.746 725.588 106.164C723.742 106.411 722.315 106.602 721.345 106.735C720.374 106.868 719.842 106.963 719.747 106.982C719.366 107.306 718.89 107.876 718.339 108.675C717.787 109.475 717.235 110.369 716.683 111.358C716.132 112.347 715.675 113.299 715.295 114.193C714.914 115.087 714.743 115.791 714.743 116.286C714.743 116.723 714.914 117.085 715.237 117.389C715.561 117.675 716.113 117.827 716.855 117.827C717.349 117.827 717.939 117.713 718.643 117.504C719.328 117.275 719.994 117.028 720.603 116.742C721.212 116.457 721.668 116.229 721.954 116.058C722.677 115.62 723.457 115.03 724.332 114.288C725.207 113.565 726.063 112.728 726.919 111.777C727.3 111.396 727.566 111.206 727.699 111.206C727.776 111.206 727.833 111.263 727.833 111.377C727.833 111.605 727.623 111.948 727.205 112.462C726.539 113.261 725.797 114.022 724.998 114.764C724.18 115.487 723.285 116.172 722.296 116.761C721.155 117.446 720.07 117.941 719.043 118.246C718.015 118.55 717.045 118.702 716.17 118.702H716.113Z" fill="#5898AB"/>
<path d="M727.338 118.912C726.73 118.912 726.235 118.703 725.835 118.303C725.436 117.903 725.227 117.199 725.227 116.172C725.227 115.601 725.36 114.916 725.626 114.174C725.892 113.413 726.216 112.652 726.615 111.872C727.015 111.092 727.414 110.407 727.795 109.798C729.336 107.287 730.611 106.012 731.6 105.993C731.848 105.993 732.152 106.088 732.513 106.298C732.875 106.507 733.046 106.735 733.046 106.983L729.907 111.035C727.833 113.718 726.806 115.62 726.806 116.743C726.806 117.618 727.148 118.075 727.833 118.075C728.271 118.075 728.841 117.884 729.545 117.523C730.249 117.142 730.991 116.667 731.771 116.096C732.552 115.525 733.274 114.897 733.978 114.231C734.682 113.566 735.253 112.957 735.691 112.405C735.957 112.044 736.205 111.796 736.414 111.663C736.623 111.53 736.756 111.454 736.813 111.454C736.927 111.454 736.985 111.53 736.985 111.701C736.985 111.834 736.832 112.12 736.509 112.519C736.185 112.938 735.748 113.413 735.196 113.965C734.53 114.631 733.807 115.354 733.008 116.115C732.209 116.876 731.334 117.542 730.402 118.075C729.469 118.607 728.442 118.874 727.338 118.874V118.912Z" fill="#5898AB"/>
</svg>
