<svg width="481" height="116" viewBox="0 0 481 116" fill="none" xmlns="http://www.w3.org/2000/svg">
<g clip-path="url(#clip0_158_966)">
<path d="M0 57.9979C0 44.9834 10.006 35.7429 23.9893 35.7429C33.0281 35.7429 40.1448 39.6804 43.2634 46.751L33.5867 51.9744C31.2687 47.8778 27.8291 46.0264 23.9101 46.0264C17.5938 46.0264 12.6534 50.4455 12.6534 57.9979C12.6534 65.5503 17.5938 69.9527 23.9101 69.9527C27.8291 69.9527 31.2687 68.185 33.5867 64.0088L43.2634 69.3118C40.1448 76.2359 33.0281 80.2571 23.9893 80.2571C10.006 80.2571 0 71.0167 0 57.9979Z" fill="#15364C"/>
<path d="M77.1674 35.7429V47.3333C76.1293 47.2537 75.3288 47.1741 74.3699 47.1741C67.4908 47.1741 62.9339 50.944 62.9339 59.2252V79.633H50.4473V36.388H62.3627V42.0931C65.4145 37.9127 70.5301 35.7429 77.1674 35.7429Z" fill="#15364C"/>
<path d="M126.109 61.5332H93.5602C94.7609 66.9158 99.3178 70.2124 105.876 70.2124C110.433 70.2124 113.714 68.8469 116.674 66.0236L123.311 73.2535C119.313 77.8318 113.305 80.2445 105.555 80.2445C90.6834 80.2445 81.0068 70.8407 81.0068 57.9853C81.0068 45.0504 90.8419 35.7303 103.937 35.7303C116.57 35.7303 126.326 44.2461 126.326 58.1487C126.346 59.1247 126.188 60.4902 126.109 61.5332ZM93.3892 54.2238H114.581C113.714 48.7616 109.649 45.2389 104.037 45.2389C98.3589 45.2389 94.2814 48.6779 93.3892 54.2238Z" fill="#15364C"/>
<path d="M193.799 1.44932L242.541 29.7404V86.289L193.799 114.563L145.053 86.289V29.7404L193.799 1.44932ZM193.799 0L193.174 0.364424L144.428 28.6387L143.803 28.999V87.001L144.428 87.3613L193.174 115.636L193.799 116L194.425 115.636L243.166 87.3613L243.792 87.001V28.999L243.166 28.6387L194.425 0.364424L193.799 0Z" fill="#8200F4"/>
<path d="M238.685 80.2445H227.165L206.615 44.4849L193.082 68.0384L186.07 80.2445H174.475L148.91 35.7555H160.367L180.241 70.3422L193.082 47.9993L200.116 35.7555H213.119L238.685 80.2445Z" fill="#8200F4" stroke="#8200F4" stroke-width="3" stroke-miterlimit="10"/>
<path d="M301.618 59.4263V84.4417H289.778V78.9963C287.426 82.9882 282.882 85.1077 276.478 85.1077C266.26 85.1077 260.177 79.4068 260.177 71.8293C260.177 64.0884 265.597 58.71 278.909 58.71H288.965C288.965 53.2646 285.721 50.0727 278.909 50.0727C274.289 50.0727 269.503 51.6184 266.339 54.1442L261.799 45.2389C266.585 41.8166 273.639 39.9442 280.614 39.9442C293.926 39.9526 301.618 46.1436 301.618 59.4263ZM288.965 70.5894V66.1074H280.289C274.369 66.1074 272.505 68.3065 272.505 71.2387C272.505 74.4179 275.182 76.5375 279.638 76.5375C283.858 76.5375 287.506 74.5813 288.965 70.5894Z" fill="#8200F4"/>
<path d="M341.192 82.3222C338.599 84.1946 334.784 85.091 330.894 85.091C320.592 85.091 314.593 79.7964 314.593 69.3663V51.3545H307.859V41.5821H314.593V30.909H327.242V41.5821H338.119V51.3587H327.242V69.2029C327.242 72.9519 329.272 74.9876 332.662 74.9876C334.496 75.011 336.288 74.4395 337.773 73.3582L341.192 82.3222Z" fill="#8200F4"/>
<path d="M392.28 40.6019V84.4417H380.277V79.2267C376.942 83.0552 372.089 85.091 366.736 85.091C355.788 85.091 348.083 78.8999 348.083 65.3744V40.6019H360.736V63.4978C360.736 70.8323 363.98 74.0912 369.575 74.0912C375.412 74.0912 379.631 70.3422 379.631 62.2788V40.6019H392.28Z" fill="#8200F4"/>
<path d="M431.125 39.9526V51.6812C430.074 51.5974 429.261 51.5179 428.29 51.5179C421.315 51.5179 416.691 55.3464 416.691 63.7407V84.4375H404.042V40.6019H416.133V46.3866C419.205 42.1517 424.396 39.9526 431.125 39.9526Z" fill="#8200F4"/>
<path d="M480.758 66.1074H447.768C448.985 71.5528 453.605 74.9038 460.275 74.9038C464.899 74.9038 468.222 73.5174 471.223 70.6648L477.952 77.9994C473.9 82.6447 467.817 85.0868 459.95 85.0868C444.866 85.0868 435.052 75.5531 435.052 62.5176C435.052 49.3983 445.029 39.9484 458.328 39.9484C471.14 39.9484 481.033 48.5857 481.033 62.681C481 63.6695 480.842 65.0476 480.758 66.1074ZM447.588 58.6932H469.08C468.188 53.1515 464.052 49.5659 458.374 49.5659C452.616 49.5659 448.481 53.0719 447.588 58.6932Z" fill="#8200F4"/>
</g>
<defs>
<clipPath id="clip0_158_966">
<rect width="481" height="116" fill="white"/>
</clipPath>
</defs>
</svg>
