<svg width="570" height="122" viewBox="0 0 570 122" fill="none" xmlns="http://www.w3.org/2000/svg">
<path d="M299.223 120.027L249.406 34.5646H273.896L310.839 97.9489L347.783 34.5646H372.385L322.576 120.027H299.223Z" fill="#134E70"/>
<path d="M370.292 35.7615L335.163 96.0396L321.878 118.829H299.92L251.505 35.7615H273.197L310.842 100.344L335.163 58.6223L348.487 35.7615H370.292ZM374.484 33.366H347.077L346.384 34.5638L333.067 57.4246L310.842 95.5526L275.293 34.5638L274.6 33.366H247.313L249.409 36.9592L297.832 120.002L298.525 121.2H323.248L323.95 120.002L337.234 97.2134L372.421 36.9592L374.516 33.366H374.484Z" fill="#134E70"/>
<path d="M341.706 120.027L391.515 34.5646H416.125L366.308 120.027H341.706Z" fill="#134E70"/>
<path d="M414.031 35.7615L365.616 118.805H343.803L392.218 35.7615H414.031ZM418.223 33.366H390.815L390.114 34.5638L341.699 117.607L339.604 121.2H367.011L367.704 120.002L416.127 36.9592L418.223 33.366Z" fill="#134E70"/>
<path d="M0 77.8978C0 53.2563 19.2014 35.7614 46.0768 35.7614C63.4322 35.7614 77.1037 43.2113 83.0931 56.602L64.4882 66.4873C60.0546 58.734 53.4527 55.2286 45.9478 55.2286C33.8563 55.2286 24.2879 63.5968 24.2879 77.8978C24.2879 92.1988 33.7918 100.567 45.9478 100.567C53.4768 100.567 60.0788 97.2213 64.5366 89.3082L83.0769 99.3532C77.0876 112.441 63.4161 120.042 46.0607 120.042C19.2014 120.042 0 102.547 0 77.8978Z" fill="#012030"/>
<path d="M148.219 35.7629V57.6655C146.22 57.5138 144.689 57.3621 142.843 57.3621C129.631 57.3621 120.876 64.5485 120.876 80.183V118.83H96.9189V36.9766H119.804V47.7802C125.64 39.8671 135.475 35.7629 148.219 35.7629Z" fill="#012030"/>
<path d="M242.219 84.5986H179.705C182.011 94.7874 190.765 101.032 203.364 101.032C212.119 101.032 218.414 98.4445 224.097 93.1185L236.842 106.813C229.168 115.484 217.649 120.044 202.752 120.044C174.183 120.044 155.595 102.245 155.595 77.8993C155.595 53.4096 174.49 35.7629 199.672 35.7629C223.944 35.7629 242.678 51.8844 242.678 78.2107C242.678 80.0313 242.372 82.6184 242.219 84.5986ZM179.399 70.7528H220.107C218.414 60.3724 210.579 53.713 199.834 53.713C188.927 53.713 181.092 60.2526 179.399 70.7528Z" fill="#012030"/>
<path d="M437.989 12.782C437.935 11.0898 438.232 9.40474 438.861 7.83064C439.49 6.25654 440.438 4.82683 441.647 3.62971C442.855 2.43259 444.299 1.49345 445.888 0.870227C447.477 0.247007 449.178 -0.0470767 450.886 0.00611963C458.407 0.00611963 463.784 5.48377 463.784 12.782C463.784 20.2399 458.407 25.7176 450.886 25.7176C443.365 25.7176 437.989 20.2399 437.989 12.782ZM438.916 36.9763H462.873V118.83H438.916V36.9763Z" fill="#012030"/>
<path d="M569.616 71.9665V118.83H545.659V75.6236C545.659 62.3846 539.516 56.3001 528.916 56.3001C517.397 56.3001 509.102 63.2949 509.102 78.3624V118.83H485.145V36.9766H508.03V46.5585C514.479 39.5637 524.152 35.7629 535.365 35.7629C554.872 35.7629 569.616 47.0216 569.616 71.9665Z" fill="#012030"/>
</svg>
