<svg width="764" height="118" viewBox="0 0 764 118" fill="none" xmlns="http://www.w3.org/2000/svg">
<path d="M41.3047 111L44.7234 117.053H0V0H44.7795L41.3047 6.16668L26.6211 32.318L19.7837 44.48L17.3177 48.8766L11.8814 58.5834L17.3177 68.2332V68.2903L20.9045 74.6853L26.6771 84.906L41.3047 110.943V111Z" fill="#003851"/>
<path d="M84.0668 85.2486H139.046L121.168 117.053H55.316L22.418 58.5263L55.316 0H121.168L140.111 33.6883H83.2261L80.2558 38.9414L69.1029 58.6976L81.0964 79.9955L84.0668 85.2486Z" fill="#009AC4"/>
<path d="M179.678 24.4382H193.24V54.2438H203.833L220.702 24.4953H235.946L215.49 59.9537L237.628 95.6405H222.047L203.721 66.0633H193.24V95.6405H179.678V24.4382Z" fill="#003851"/>
<path d="M264.135 24.4382H276.521L302.077 95.5834H288.29L282.63 79.8241H258.082L252.422 95.5834H238.635L264.135 24.4382ZM279.603 68.4615L270.356 41.4537H270.132L261.165 68.4615H279.603Z" fill="#003851"/>
<path d="M363.839 72.0016V95.5834H350.276V75.142L344.28 68.3473H322.534V95.5834H308.972V24.4382H352.742L363.391 35.4012V56.9275L356.665 63.9507L363.839 72.0016ZM322.534 56.9846H346.577L350.052 53.4445V39.5694L346.577 36.0293H322.534V56.9846Z" fill="#003851"/>
<path d="M395.841 24.4382H408.227L433.783 95.5834H419.996L414.336 79.8241H389.788L384.128 95.5834H370.341L395.841 24.4382ZM411.309 68.4615L402.062 41.4537H401.838L392.871 68.4615H411.309Z" fill="#003851"/>
<path d="M439.725 83.8782V36.1435L451.214 24.4382H485.345L496.554 35.9151V46.7639H482.991V40.9969L478.283 36.2006H458.331L453.231 41.3966V78.568L458.331 83.764H478.283L482.991 78.9677V73.2007H496.554V84.0495L485.289 95.5263H451.158L439.725 83.8782Z" fill="#003851"/>
<path d="M505.016 83.8782V36.1435L516.505 24.4382H552.429L563.918 36.1435V83.8782L552.429 95.5834H516.505L505.016 83.8782ZM545.256 83.764L550.356 78.568V41.3966L545.256 36.2006H523.734L518.634 41.3966V78.568L523.734 83.764H545.256Z" fill="#003851"/>
<path d="M575.855 24.4382H619.626L629.602 34.6018V54.5293L625.623 58.6976L632.684 66.0062V84.6204L621.924 95.5834H575.855V24.4382ZM612.621 54.2438L616.207 50.5895V39.5694L612.733 36.0293H589.082V54.2438H612.621ZM615.03 83.9924L619.346 79.5957V69.6605L615.03 65.2639H589.082V83.9353H615.03V83.9924Z" fill="#003851"/>
<path d="M662.22 24.4382H674.606L700.162 95.5834H686.375L680.715 79.8241H656.168L650.507 95.5834H636.664L662.22 24.4382ZM677.632 68.4615L668.385 41.4537H668.161L659.194 68.4615H677.632Z" fill="#003851"/>
<path d="M707.056 24.4382H719.217L750.322 72.6868H750.546V24.4382H763.604V95.5834H751.443L720.338 47.392H720.114V95.5263H707.056V24.4382Z" fill="#003851"/>
</svg>
